<svg width="167" height="61" viewBox="0 0 167 61" fill="none" xmlns="http://www.w3.org/2000/svg">
<g clip-path="url(#clip0_639_160)">
<path d="M57.2194 16.7627H60.3983L69.2538 38.0556H64.9395L62.7825 32.5059H54.9488L52.7917 38.0556H48.4775L57.2194 16.7627ZM61.3066 28.7682L58.9224 22.5389L56.5383 28.7682H61.3066Z" fill="#2196F3"/>
<path d="M71.5244 16.7627H77.428C87.1917 16.7627 88.8946 23.3318 88.8946 27.5224C88.8946 29.7876 88.327 38.0556 77.5415 38.0556H71.5244V16.7627ZM77.428 34.318C79.5851 34.318 84.9211 34.0914 84.9211 27.6356C84.9211 20.9533 79.3581 20.7268 77.201 20.7268H75.498V34.318H77.428Z" fill="#2196F3"/>
<path d="M91.7327 16.7627H97.8634C105.016 16.7627 105.924 21.5196 105.924 23.5583C105.924 26.9561 103.653 29.9009 100.134 30.2407L106.151 38.0556H101.269L95.7063 30.2407H95.5927V38.0556H91.6191V16.7627H91.7327ZM95.7063 26.9561H98.0904C98.9987 26.9561 102.064 26.8429 102.064 23.7849C102.064 20.7269 98.9987 20.6136 98.0904 20.6136H95.7063V26.9561Z" fill="#2196F3"/>
<path d="M129.88 27.6355C129.88 33.7516 124.998 38.7351 118.64 38.7351C112.282 38.7351 107.4 33.8648 107.4 27.6355C107.4 21.5195 112.282 16.5361 118.64 16.5361C124.998 16.5361 129.88 21.4062 129.88 27.6355ZM125.906 27.5223C125.906 23.5582 122.841 20.2736 118.64 20.2736C114.439 20.2736 111.374 23.5582 111.374 27.5223C111.374 31.5997 114.553 34.8842 118.64 34.8842C122.841 34.7709 125.906 31.4864 125.906 27.5223Z" fill="#2196F3"/>
<path d="M36.8975 0H31.5615V45.5305H36.8975V0Z" fill="#1976D2"/>
<path d="M28.9502 20.9531H23.6143V59.1217H28.9502V20.9531Z" fill="#1E88E5"/>
<path d="M21.1172 18.1221H15.7812V45.5309H21.1172V18.1221Z" fill="#2196F3"/>
<path d="M13.1699 10.4199H7.83398V31.373H13.1699V10.4199Z" fill="#42A5F5"/>
<path d="M5.33594 24.2373H0V38.5082H5.33594V24.2373Z" fill="#64B5F6"/>
<path d="M135.334 16.8057H146.233V20.6565H139.308V25.5267H145.892V29.3775H139.308V38.0985H135.334V16.8057Z" fill="#F44336"/>
<path d="M154.748 27.4521L147.368 16.8057H152.023L157.132 24.1676L162.241 16.8057H166.896L159.516 27.4521L166.896 38.0985H162.127L157.018 30.7366L151.909 38.0985H147.368L154.748 27.4521Z" fill="#F44336"/>
</g>
<path d="M53.0316 56.7386H52.2897V46.899H48.8682V46.2075H56.4531V46.899H53.0316V56.7386Z" fill="#1976D2"/>
<path d="M63.3033 56.7386V51.6603C63.3033 50.8728 63.1377 50.3013 62.8063 49.946C62.475 49.5858 61.9611 49.4057 61.2648 49.4057C60.3284 49.4057 59.6417 49.6434 59.2047 50.1188C58.7725 50.5894 58.5564 51.3554 58.5564 52.4166V56.7386H57.8433V45.5304H58.5564V49.096L58.5204 50.0972H58.5708C58.8638 49.6266 59.2335 49.2857 59.6801 49.0744C60.1267 48.8631 60.6814 48.7574 61.3441 48.7574C63.1209 48.7574 64.0092 49.7107 64.0092 51.6171V56.7386H63.3033Z" fill="#1976D2"/>
<path d="M69.707 56.8826C68.5689 56.8826 67.6805 56.5321 67.0418 55.831C66.4079 55.1298 66.091 54.1478 66.091 52.8849C66.091 51.6363 66.3983 50.6375 67.013 49.8883C67.6276 49.1344 68.456 48.7574 69.4981 48.7574C70.4201 48.7574 71.1476 49.0792 71.6806 49.7227C72.2137 50.3661 72.4802 51.2401 72.4802 52.3446V52.9209H66.8401C66.8497 53.9965 67.0994 54.8177 67.5892 55.3844C68.0838 55.951 68.7898 56.2343 69.707 56.2343C70.1536 56.2343 70.5449 56.2031 70.8811 56.1407C71.222 56.0783 71.6518 55.9438 72.1704 55.7373V56.3856C71.7287 56.5777 71.3205 56.7073 70.9459 56.7746C70.5713 56.8466 70.1584 56.8826 69.707 56.8826ZM69.4981 49.3913C68.7441 49.3913 68.1391 49.641 67.6829 50.1404C67.2267 50.6351 66.9601 51.3506 66.8833 52.287H71.7239C71.7239 51.3794 71.527 50.6711 71.1332 50.1621C70.7394 49.6482 70.1944 49.3913 69.4981 49.3913Z" fill="#1976D2"/>
<path d="M83.7243 53.0217H79.4457L77.9762 56.7386H77.1623L81.3977 46.1643H81.8659L86.015 56.7386H85.1866L83.7243 53.0217ZM79.7122 52.359H83.4794L82.046 48.5629C81.926 48.2652 81.7819 47.8522 81.6138 47.324C81.4842 47.785 81.3425 48.2028 81.1888 48.5774L79.7122 52.359Z" fill="#1976D2"/>
<path d="M90.4161 48.7574C90.7474 48.7574 91.1028 48.791 91.4822 48.8583L91.3453 49.5426C91.0188 49.4609 90.6802 49.4201 90.3297 49.4201C89.6622 49.4201 89.1147 49.7034 88.6873 50.2701C88.26 50.8367 88.0463 51.5523 88.0463 52.4166V56.7386H87.3331V48.9087H87.9382L88.0102 50.3205H88.0607C88.3824 49.7443 88.7258 49.3409 89.0907 49.1104C89.4557 48.8751 89.8975 48.7574 90.4161 48.7574Z" fill="#1976D2"/>
<path d="M95.1486 56.2487C95.6 56.2487 95.9938 56.2103 96.3299 56.1335V56.7097C95.9842 56.825 95.5856 56.8826 95.1342 56.8826C94.4427 56.8826 93.9313 56.6977 93.5999 56.328C93.2734 55.9582 93.1101 55.3772 93.1101 54.5848V49.5282H91.9504V49.1104L93.1101 48.7862L93.4703 47.0143H93.8376V48.9087H96.1354V49.5282H93.8376V54.484C93.8376 55.0842 93.9433 55.5284 94.1546 55.8165C94.3658 56.1047 94.6972 56.2487 95.1486 56.2487Z" fill="#1976D2"/>
<path d="M108.33 52.8128C108.33 54.0902 108.021 55.089 107.401 55.8093C106.782 56.5249 105.927 56.8826 104.837 56.8826C104.15 56.8826 103.545 56.7169 103.022 56.3856C102.498 56.0543 102.097 55.5788 101.819 54.9594C101.54 54.3399 101.401 53.6244 101.401 52.8128C101.401 51.5355 101.711 50.5414 102.33 49.8307C102.95 49.1152 103.8 48.7574 104.88 48.7574C105.956 48.7574 106.799 49.12 107.408 49.8451C108.023 50.5654 108.33 51.5547 108.33 52.8128ZM102.15 52.8128C102.15 53.8885 102.385 54.7289 102.856 55.3339C103.331 55.9342 104.001 56.2343 104.866 56.2343C105.73 56.2343 106.398 55.9342 106.868 55.3339C107.344 54.7289 107.581 53.8885 107.581 52.8128C107.581 51.7323 107.341 50.8944 106.861 50.2989C106.386 49.7034 105.716 49.4057 104.851 49.4057C103.987 49.4057 103.319 49.7034 102.849 50.2989C102.383 50.8896 102.15 51.7275 102.15 52.8128Z" fill="#1976D2"/>
<path d="M113.409 49.5282H111.565V56.7386H110.852V49.5282H109.396V49.1104L110.852 48.8439V48.2388C110.852 47.2784 111.027 46.5749 111.377 46.1283C111.733 45.6769 112.311 45.4512 113.113 45.4512C113.546 45.4512 113.978 45.516 114.41 45.6457L114.244 46.2651C113.86 46.1451 113.478 46.0851 113.099 46.0851C112.542 46.0851 112.146 46.2507 111.91 46.5821C111.68 46.9086 111.565 47.4417 111.565 48.1812V48.9087H113.409V49.5282Z" fill="#1976D2"/>
<path d="M121.678 56.7386H120.936V46.899H117.514V46.2075H125.099V46.899H121.678V56.7386Z" fill="#1976D2"/>
<path d="M129.573 48.7574C129.904 48.7574 130.259 48.791 130.639 48.8583L130.502 49.5426C130.175 49.4609 129.837 49.4201 129.486 49.4201C128.819 49.4201 128.271 49.7034 127.844 50.2701C127.416 50.8367 127.203 51.5523 127.203 52.4166V56.7386H126.49V48.9087H127.095L127.167 50.3205H127.217C127.539 49.7443 127.882 49.3409 128.247 49.1104C128.612 48.8751 129.054 48.7574 129.573 48.7574Z" fill="#1976D2"/>
<path d="M136.992 56.7386L136.812 55.4996H136.754C136.36 56.0038 135.955 56.3616 135.537 56.5729C135.124 56.7794 134.634 56.8826 134.067 56.8826C133.299 56.8826 132.701 56.6857 132.274 56.292C131.846 55.8982 131.633 55.3531 131.633 54.6568C131.633 53.8933 131.95 53.3002 132.584 52.8777C133.222 52.4551 134.144 52.2318 135.35 52.2078L136.841 52.1645V51.6459C136.841 50.9016 136.689 50.3397 136.387 49.9604C136.084 49.581 135.597 49.3913 134.925 49.3913C134.199 49.3913 133.448 49.593 132.67 49.9964L132.403 49.3769C133.263 48.9735 134.113 48.7718 134.953 48.7718C135.813 48.7718 136.454 48.9951 136.877 49.4417C137.304 49.8883 137.518 50.5846 137.518 51.5307V56.7386H136.992ZM134.111 56.2343C134.946 56.2343 135.604 55.9966 136.084 55.5212C136.569 55.041 136.812 54.3759 136.812 53.5259V52.7552L135.443 52.8128C134.343 52.8656 133.558 53.0385 133.088 53.3315C132.622 53.6196 132.389 54.071 132.389 54.6856C132.389 55.1755 132.538 55.5572 132.836 55.831C133.138 56.0999 133.563 56.2343 134.111 56.2343Z" fill="#1976D2"/>
<path d="M142.927 48.7574C143.494 48.7574 143.984 48.8607 144.397 49.0672C144.81 49.2737 145.179 49.6266 145.506 50.126H145.549C145.52 49.521 145.506 48.9279 145.506 48.3469V45.5304H146.212V56.7386H145.744L145.564 55.5428H145.506C144.911 56.436 144.056 56.8826 142.942 56.8826C141.861 56.8826 141.035 56.5465 140.464 55.8742C139.892 55.2019 139.607 54.2222 139.607 52.9353C139.607 51.5811 139.89 50.5462 140.457 49.8307C141.023 49.1152 141.847 48.7574 142.927 48.7574ZM142.927 49.4057C142.073 49.4057 141.429 49.7059 140.997 50.3061C140.569 50.9064 140.356 51.778 140.356 52.9209C140.356 55.1394 141.218 56.2487 142.942 56.2487C143.825 56.2487 144.474 55.9918 144.887 55.478C145.3 54.9642 145.506 54.1166 145.506 52.9353V52.8128C145.506 51.6027 145.302 50.7335 144.894 50.2053C144.49 49.6722 143.835 49.4057 142.927 49.4057Z" fill="#1976D2"/>
<path d="M149.561 56.7386H148.848V48.9087H149.561V56.7386ZM148.747 46.7333C148.747 46.2723 148.899 46.0418 149.201 46.0418C149.35 46.0418 149.465 46.1019 149.547 46.2219C149.633 46.342 149.677 46.5124 149.677 46.7333C149.677 46.9494 149.633 47.1199 149.547 47.2448C149.465 47.3696 149.35 47.432 149.201 47.432C148.899 47.432 148.747 47.1991 148.747 46.7333Z" fill="#1976D2"/>
<path d="M157.651 56.7386V51.6603C157.651 50.8728 157.485 50.3013 157.154 49.946C156.822 49.5858 156.308 49.4057 155.612 49.4057C154.676 49.4057 153.989 49.6434 153.552 50.1188C153.12 50.5894 152.904 51.3554 152.904 52.4166V56.7386H152.191V48.9087H152.796L152.932 49.982H152.976C153.485 49.1656 154.39 48.7574 155.691 48.7574C157.468 48.7574 158.356 49.7107 158.356 51.6171V56.7386H157.651Z" fill="#1976D2"/>
<path d="M167 48.9087V49.4057L165.38 49.5066C165.812 50.0444 166.028 50.6351 166.028 51.2785C166.028 52.0325 165.776 52.6447 165.272 53.1154C164.772 53.5812 164.1 53.8141 163.255 53.8141C162.899 53.8141 162.65 53.7997 162.506 53.7708C162.222 53.9197 162.006 54.095 161.857 54.2967C161.708 54.4984 161.634 54.7121 161.634 54.9378C161.634 55.1875 161.728 55.37 161.915 55.4852C162.107 55.6005 162.426 55.6581 162.873 55.6581H164.241C165.091 55.6581 165.742 55.831 166.194 56.1767C166.645 56.5177 166.871 57.0243 166.871 57.6966C166.871 58.5225 166.534 59.1588 165.862 59.6054C165.195 60.0568 164.241 60.2825 163.003 60.2825C162.018 60.2825 161.255 60.0928 160.712 59.7135C160.174 59.3341 159.905 58.8059 159.905 58.1288C159.905 57.5909 160.071 57.1443 160.402 56.789C160.738 56.4336 161.192 56.1911 161.764 56.0615C161.528 55.9606 161.339 55.8189 161.195 55.6365C161.055 55.4492 160.986 55.2355 160.986 54.9954C160.986 54.472 161.319 54.011 161.987 53.6124C161.531 53.4251 161.175 53.1322 160.921 52.7336C160.666 52.3302 160.539 51.8692 160.539 51.3506C160.539 50.5678 160.786 49.9412 161.281 49.4705C161.78 48.9951 162.453 48.7574 163.298 48.7574C163.812 48.7574 164.21 48.8079 164.494 48.9087H167ZM160.662 58.0639C160.662 59.1396 161.461 59.6775 163.06 59.6775C165.115 59.6775 166.143 59.022 166.143 57.711C166.143 57.2404 165.982 56.8994 165.661 56.6881C165.339 56.4768 164.818 56.3712 164.097 56.3712H162.815C161.379 56.3712 160.662 56.9354 160.662 58.0639ZM161.259 51.3506C161.259 51.9556 161.442 52.4263 161.807 52.7624C162.177 53.0937 162.669 53.2594 163.283 53.2594C163.937 53.2594 164.436 53.0937 164.782 52.7624C165.132 52.4311 165.308 51.9508 165.308 51.3218C165.308 50.6543 165.127 50.1548 164.767 49.8235C164.412 49.4874 163.913 49.3193 163.269 49.3193C162.645 49.3193 162.153 49.4994 161.792 49.8595C161.437 50.2149 161.259 50.7119 161.259 51.3506Z" fill="#1976D2"/>
<defs>
<clipPath id="clip0_639_160">
<rect width="166.812" height="59.0084" fill="white"/>
</clipPath>
</defs>
</svg>
