<svg width="567" height="200" viewBox="0 0 567 200" fill="none" xmlns="http://www.w3.org/2000/svg">
<g clip-path="url(#clip0_614_36)">
<path d="M189.838 55.6133H200.384L229.764 126.257H215.451L208.294 107.844H182.305L175.148 126.257H160.835L189.838 55.6133ZM203.398 95.444L195.488 74.7771L187.578 95.444H203.398Z" fill="white"/>
<path d="M237.298 55.6133H256.884C289.277 55.6133 294.927 77.4075 294.927 91.3107C294.927 98.826 293.044 126.257 257.261 126.257H237.298V55.6133ZM256.884 113.856C264.041 113.856 281.744 113.105 281.744 91.6864C281.744 69.5164 263.288 68.765 256.131 68.765H250.481V113.856H256.884Z" fill="white"/>
<path d="M304.343 55.6133H324.683C348.413 55.6133 351.426 71.3953 351.426 78.159C351.426 89.4319 343.893 99.2018 332.216 100.329L352.18 126.257H335.983L317.527 100.329H317.15V126.257H303.967V55.6133H304.343ZM317.527 89.4319H325.437C328.45 89.4319 338.62 89.0564 338.62 78.9108C338.62 68.7652 328.45 68.3893 325.437 68.3893H317.527V89.4319Z" fill="white"/>
<path d="M430.901 91.6863C430.901 111.977 414.705 128.511 393.612 128.511C372.519 128.511 356.322 112.353 356.322 91.6863C356.322 71.3951 372.519 54.8618 393.612 54.8618C414.705 54.8618 430.901 71.0193 430.901 91.6863ZM417.718 91.3106C417.718 78.1589 407.548 67.2617 393.612 67.2617C379.675 67.2617 369.505 78.1589 369.505 91.3106C369.505 104.838 380.052 115.735 393.612 115.735C407.548 115.359 417.718 104.462 417.718 91.3106Z" fill="white"/>
<path d="M122.415 0H104.712V151.056H122.415V0Z" fill="#155EA6"/>
<path d="M96.0489 69.5161H78.3457V196.148H96.0489V69.5161Z" fill="#1D6AAD"/>
<path d="M70.0585 54.9438H52.3555V145.878H70.0585V54.9438Z" fill="#23679C"/>
<path d="M43.6923 34.5698H25.9893V104.086H43.6923V34.5698Z" fill="#5BA1D9"/>
<path d="M17.703 80.4126H0V127.759H17.703V80.4126Z" fill="#62A4D9"/>
<path d="M448.999 55.7549H485.159V68.5308H462.182V84.6886H484.029V97.4644H462.182V126.398H448.999V55.7549Z" fill="#F44336"/>
<path d="M513.408 91.0766L488.925 55.7549H504.368L521.318 80.1794L538.268 55.7549H553.711L529.228 91.0766L553.711 126.398H537.891L520.941 101.974L503.991 126.398H488.925L513.408 91.0766Z" fill="#F44336"/>
</g>
<path d="M184.412 188.242H181.928V155.597H170.47V153.303H195.87V155.597H184.412V188.242Z" fill="white"/>
<path d="M218.81 188.242V171.394C218.81 168.781 218.255 166.885 217.146 165.706C216.036 164.511 214.316 163.914 211.984 163.914C208.848 163.914 206.548 164.703 205.085 166.28C203.638 167.841 202.914 170.382 202.914 173.903V188.242H200.526V151.057H202.914V162.886L202.793 166.208H202.962C203.943 164.647 205.181 163.516 206.677 162.815C208.172 162.114 210.03 161.763 212.249 161.763C218.199 161.763 221.174 164.926 221.174 171.251V188.242H218.81Z" fill="white"/>
<path d="M240.255 188.72C236.443 188.72 233.468 187.557 231.33 185.231C229.207 182.905 228.145 179.647 228.145 175.457C228.145 171.314 229.175 168 231.233 165.515C233.292 163.014 236.066 161.763 239.555 161.763C242.643 161.763 245.079 162.831 246.864 164.965C248.649 167.1 249.542 170 249.542 173.664V175.576H230.654C230.686 179.145 231.523 181.869 233.163 183.749C234.819 185.629 237.183 186.569 240.255 186.569C241.75 186.569 243.061 186.466 244.187 186.259C245.328 186.051 246.768 185.605 248.504 184.92V187.071C247.025 187.708 245.658 188.139 244.404 188.362C243.149 188.601 241.766 188.72 240.255 188.72ZM239.555 163.866C237.03 163.866 235.004 164.695 233.476 166.352C231.949 167.993 231.056 170.366 230.799 173.473H247.009C247.009 170.462 246.35 168.112 245.031 166.423C243.712 164.718 241.887 163.866 239.555 163.866Z" fill="white"/>
<path d="M287.196 175.911H272.868L267.947 188.242H265.221L279.405 153.16H280.973L294.867 188.242H292.093L287.196 175.911ZM273.76 173.712H286.376L281.576 161.118C281.174 160.13 280.691 158.76 280.128 157.007C279.694 158.537 279.22 159.923 278.705 161.166L273.76 173.712Z" fill="white"/>
<path d="M309.606 161.763C310.715 161.763 311.905 161.875 313.176 162.098L312.717 164.368C311.624 164.097 310.49 163.962 309.316 163.962C307.081 163.962 305.248 164.902 303.816 166.782C302.385 168.662 301.669 171.036 301.669 173.903V188.242H299.281V162.265H301.308L301.549 166.949H301.718C302.795 165.037 303.945 163.699 305.167 162.934C306.389 162.153 307.869 161.763 309.606 161.763Z" fill="white"/>
<path d="M325.454 186.617C326.965 186.617 328.284 186.49 329.41 186.235V188.146C328.252 188.529 326.917 188.72 325.405 188.72C323.09 188.72 321.377 188.107 320.267 186.88C319.174 185.653 318.627 183.725 318.627 181.097V164.32H314.744V162.934L318.627 161.859L319.833 155.98H321.064V162.265H328.758V164.32H321.064V180.762C321.064 182.754 321.417 184.227 322.125 185.183C322.832 186.139 323.942 186.617 325.454 186.617Z" fill="white"/>
<path d="M369.597 175.218C369.597 179.456 368.56 182.769 366.485 185.159C364.411 187.533 361.548 188.72 357.898 188.72C355.598 188.72 353.572 188.17 351.819 187.071C350.066 185.972 348.723 184.394 347.791 182.339C346.858 180.284 346.392 177.91 346.392 175.218C346.392 170.98 347.429 167.682 349.503 165.324C351.578 162.95 354.424 161.763 358.043 161.763C361.645 161.763 364.467 162.966 366.509 165.372C368.568 167.762 369.597 171.043 369.597 175.218ZM348.9 175.218C348.9 178.786 349.688 181.575 351.264 183.582C352.856 185.573 355.1 186.569 357.994 186.569C360.889 186.569 363.124 185.573 364.7 183.582C366.292 181.575 367.088 178.786 367.088 175.218C367.088 171.633 366.284 168.853 364.676 166.877C363.084 164.902 360.841 163.914 357.946 163.914C355.051 163.914 352.816 164.902 351.24 166.877C349.68 168.837 348.9 171.617 348.9 175.218Z" fill="white"/>
<path d="M386.603 164.32H380.428V188.242H378.04V164.32H373.167V162.934L378.04 162.05V160.042C378.04 156.856 378.627 154.522 379.801 153.04C380.991 151.543 382.928 150.794 385.614 150.794C387.061 150.794 388.509 151.009 389.956 151.439L389.401 153.494C388.115 153.096 386.836 152.897 385.566 152.897C383.7 152.897 382.374 153.447 381.586 154.546C380.814 155.629 380.428 157.398 380.428 159.851V162.265H386.603V164.32Z" fill="white"/>
<path d="M414.295 188.242H411.811V155.597H400.353V153.303H425.753V155.597H414.295V188.242Z" fill="white"/>
<path d="M440.733 161.763C441.842 161.763 443.033 161.875 444.303 162.098L443.845 164.368C442.751 164.097 441.617 163.962 440.443 163.962C438.208 163.962 436.375 164.902 434.944 166.782C433.512 168.662 432.797 171.036 432.797 173.903V188.242H430.409V162.265H432.435L432.676 166.949H432.845C433.922 165.037 435.072 163.699 436.294 162.934C437.517 162.153 438.996 161.763 440.733 161.763Z" fill="white"/>
<path d="M465.579 188.242L464.976 184.132H464.783C463.464 185.804 462.105 186.991 460.706 187.692C459.323 188.377 457.683 188.72 455.785 188.72C453.212 188.72 451.21 188.067 449.779 186.76C448.347 185.454 447.632 183.646 447.632 181.336C447.632 178.802 448.693 176.835 450.816 175.433C452.955 174.031 456.042 173.29 460.079 173.21L465.072 173.067V171.346C465.072 168.877 464.565 167.013 463.552 165.754C462.539 164.495 460.907 163.866 458.656 163.866C456.227 163.866 453.711 164.535 451.105 165.874L450.213 163.818C453.091 162.48 455.938 161.811 458.752 161.811C461.631 161.811 463.777 162.552 465.193 164.033C466.624 165.515 467.339 167.825 467.339 170.964V188.242H465.579ZM455.93 186.569C458.728 186.569 460.931 185.781 462.539 184.203C464.163 182.61 464.976 180.404 464.976 177.584V175.026L460.392 175.218C456.71 175.393 454.08 175.966 452.504 176.938C450.945 177.894 450.165 179.392 450.165 181.431C450.165 183.056 450.663 184.323 451.66 185.231C452.673 186.123 454.096 186.569 455.93 186.569Z" fill="white"/>
<path d="M485.455 161.763C487.353 161.763 488.993 162.106 490.376 162.791C491.759 163.476 492.997 164.647 494.091 166.304H494.236C494.139 164.296 494.091 162.329 494.091 160.401V151.057H496.455V188.242H494.887L494.284 184.275H494.091C492.097 187.238 489.234 188.72 485.503 188.72C481.885 188.72 479.119 187.605 477.205 185.374C475.292 183.144 474.335 179.894 474.335 175.624C474.335 171.131 475.284 167.698 477.181 165.324C479.079 162.95 481.837 161.763 485.455 161.763ZM485.455 163.914C482.593 163.914 480.438 164.91 478.99 166.901C477.559 168.893 476.844 171.784 476.844 175.576C476.844 182.937 479.73 186.617 485.503 186.617C488.462 186.617 490.633 185.765 492.016 184.06C493.399 182.355 494.091 179.543 494.091 175.624V175.218C494.091 171.203 493.407 168.319 492.04 166.567C490.69 164.798 488.494 163.914 485.455 163.914Z" fill="white"/>
<path d="M507.672 188.242H505.283V162.265H507.672V188.242ZM504.946 155.048C504.946 153.518 505.452 152.754 506.465 152.754C506.964 152.754 507.35 152.953 507.623 153.351C507.913 153.749 508.057 154.315 508.057 155.048C508.057 155.765 507.913 156.33 507.623 156.745C507.35 157.159 506.964 157.366 506.465 157.366C505.452 157.366 504.946 156.593 504.946 155.048Z" fill="white"/>
<path d="M534.761 188.242V171.394C534.761 168.781 534.206 166.885 533.096 165.706C531.987 164.511 530.266 163.914 527.934 163.914C524.798 163.914 522.499 164.703 521.035 166.28C519.588 167.841 518.864 170.382 518.864 173.903V188.242H516.476V162.265H518.502L518.961 165.826H519.105C520.81 163.117 523.841 161.763 528.199 161.763C534.149 161.763 537.124 164.926 537.124 171.251V188.242H534.761Z" fill="white"/>
<path d="M566.071 162.265V163.914L560.643 164.249C562.091 166.033 562.814 167.993 562.814 170.127C562.814 172.629 561.97 174.66 560.282 176.221C558.609 177.767 556.358 178.539 553.527 178.539C552.337 178.539 551.501 178.492 551.019 178.396C550.07 178.89 549.346 179.472 548.848 180.141C548.349 180.81 548.1 181.519 548.1 182.268C548.1 183.096 548.414 183.701 549.041 184.084C549.684 184.466 550.753 184.657 552.249 184.657H556.832C559.679 184.657 561.858 185.231 563.369 186.378C564.881 187.509 565.637 189.19 565.637 191.421C565.637 194.161 564.511 196.272 562.26 197.753C560.024 199.251 556.832 200 552.683 200C549.387 200 546.83 199.371 545.012 198.112C543.211 196.853 542.311 195.101 542.311 192.854C542.311 191.07 542.866 189.588 543.975 188.409C545.101 187.23 546.621 186.426 548.534 185.996C547.746 185.661 547.111 185.191 546.629 184.586C546.162 183.964 545.929 183.255 545.929 182.459C545.929 180.722 547.047 179.193 549.282 177.87C547.754 177.249 546.564 176.277 545.712 174.955C544.86 173.617 544.433 172.087 544.433 170.366C544.433 167.769 545.262 165.69 546.918 164.129C548.59 162.552 550.842 161.763 553.672 161.763C555.393 161.763 556.728 161.93 557.676 162.265H566.071ZM544.844 192.639C544.844 196.208 547.521 197.992 552.876 197.992C559.759 197.992 563.2 195.818 563.2 191.468C563.2 189.907 562.662 188.776 561.584 188.075C560.507 187.374 558.762 187.023 556.35 187.023H552.056C547.248 187.023 544.844 188.895 544.844 192.639ZM546.846 170.366C546.846 172.374 547.457 173.935 548.679 175.05C549.917 176.15 551.566 176.699 553.624 176.699C555.811 176.699 557.483 176.15 558.641 175.05C559.815 173.951 560.402 172.358 560.402 170.271C560.402 168.056 559.799 166.399 558.593 165.3C557.403 164.185 555.731 163.627 553.576 163.627C551.485 163.627 549.837 164.225 548.631 165.42C547.441 166.598 546.846 168.247 546.846 170.366Z" fill="white"/>
<defs>
<clipPath id="clip0_614_36">
<rect width="553.433" height="195.772" fill="white"/>
</clipPath>
</defs>
</svg>
